<?xml version="1.0" standalone="no"?>
<!DOCTYPE svg PUBLIC "-//W3C//DTD SVG 20010904//EN"
 "http://www.w3.org/TR/2001/REC-SVG-20010904/DTD/svg10.dtd">
<svg version="1.0" xmlns="http://www.w3.org/2000/svg"
 width="700.000000pt" height="700.000000pt" viewBox="0 0 700.000000 700.000000"
 preserveAspectRatio="xMidYMid meet">
<metadata>
Created by potrace 1.11, written by Peter Selinger 2001-2013
</metadata>
<g transform="translate(0.000000,700.000000) scale(0.100000,-0.100000)"
fill="#000000" stroke="none">
<path d="M3425 6568 c-38 -84 -88 -196 -113 -248 -24 -52 -50 -108 -57 -125
-8 -16 -77 -167 -153 -335 -77 -168 -156 -344 -178 -392 -61 -139 -27 -141
-311 19 -136 78 -270 153 -298 168 -27 15 -54 31 -60 35 -5 4 -35 21 -65 37
-30 17 -125 70 -210 118 -85 48 -175 99 -200 113 -147 82 -209 117 -238 134
l-33 20 5 -23 c2 -13 14 -64 26 -114 12 -49 24 -101 26 -115 3 -14 7 -32 10
-40 3 -8 8 -25 10 -38 2 -12 23 -98 45 -190 22 -92 46 -196 54 -232 8 -36 28
-121 45 -190 39 -163 99 -413 118 -497 10 -42 9 -43 -17 -44 -14 0 -33 -2 -43
-4 -9 -2 -56 -6 -105 -10 -48 -3 -106 -8 -128 -10 -22 -2 -76 -7 -120 -10 -44
-4 -96 -8 -115 -10 -19 -2 -73 -6 -120 -10 -47 -4 -101 -8 -120 -10 -19 -2
-73 -6 -120 -9 -47 -4 -96 -8 -110 -11 -14 -2 -65 -7 -115 -11 -145 -10 -166
-12 -250 -20 -85 -8 -133 -11 -178 -13 -16 -1 -27 -5 -25 -10 2 -7 178 -154
553 -465 196 -163 612 -510 620 -518 7 -6 2 -16 -12 -28 -13 -10 -44 -36 -70
-58 -27 -22 -217 -181 -423 -352 -206 -171 -384 -319 -395 -328 -11 -10 -76
-64 -145 -121 -153 -127 -143 -118 -128 -118 27 -1 194 -15 218 -18 14 -2 59
-6 100 -10 74 -6 119 -10 235 -19 33 -3 94 -8 135 -12 41 -3 91 -7 110 -9 19
-2 71 -6 115 -10 134 -10 188 -15 245 -20 30 -3 84 -7 120 -10 200 -17 294
-26 296 -28 2 -2 -17 -81 -76 -327 -17 -69 -32 -134 -34 -145 -3 -11 -21 -90
-41 -175 -20 -85 -38 -162 -40 -170 -2 -8 -16 -64 -30 -125 -15 -60 -29 -121
-31 -135 -3 -14 -14 -61 -25 -105 -12 -44 -22 -87 -24 -95 -2 -8 -12 -55 -24
-103 -12 -49 -21 -90 -21 -93 0 -3 61 29 125 66 17 10 57 32 90 50 69 38 64
36 285 159 91 51 172 97 180 102 8 5 123 69 255 142 132 74 267 149 300 167
108 60 135 74 138 69 2 -2 43 -94 92 -204 48 -110 105 -237 127 -283 21 -45
38 -84 38 -86 0 -3 13 -33 29 -68 26 -57 119 -262 183 -408 112 -252 144 -320
148 -320 3 0 11 12 17 28 7 15 45 97 84 182 39 85 80 175 91 200 11 25 33 72
48 105 43 92 86 186 160 350 37 83 84 184 103 225 43 94 73 160 103 227 13 29
27 53 31 53 5 0 28 -12 53 -26 25 -14 70 -40 100 -56 50 -28 330 -185 425
-238 22 -13 63 -35 90 -50 28 -15 165 -92 305 -170 140 -79 280 -157 310 -173
30 -16 59 -33 64 -38 22 -20 21 -4 -6 104 -15 61 -29 123 -32 137 -2 14 -16
75 -31 135 -25 104 -65 269 -99 415 -8 36 -38 160 -65 275 -84 353 -93 396
-89 400 4 5 54 10 183 20 44 3 96 8 115 10 19 3 71 7 115 10 44 3 100 8 125
10 47 5 122 11 225 20 33 3 83 7 110 9 28 3 88 8 135 11 47 3 96 8 110 10 14
2 66 7 115 10 50 4 106 8 125 10 19 2 76 6 125 10 50 4 91 8 93 10 3 2 -125
109 -342 285 -83 67 -371 304 -376 310 -3 3 -27 23 -55 45 -27 21 -52 42 -55
45 -3 3 -41 34 -85 70 -44 35 -82 67 -85 70 -3 3 -27 23 -55 45 -27 22 -56 45
-63 52 -8 8 -29 25 -48 39 -19 15 -34 29 -34 33 0 6 52 50 229 198 19 15 75
62 125 104 50 42 242 201 426 354 422 350 404 334 399 339 -2 3 -45 7 -94 11
-50 3 -106 8 -125 10 -41 5 -113 12 -225 20 -44 3 -96 8 -115 10 -19 3 -71 7
-115 10 -87 6 -162 12 -240 20 -27 2 -81 7 -120 10 -38 3 -92 8 -120 10 -27 2
-84 7 -125 10 -41 3 -93 8 -115 10 -22 2 -71 7 -110 10 -38 4 -71 8 -72 9 0 0
12 53 28 116 15 63 30 126 33 140 3 14 14 62 25 107 11 45 22 92 25 105 2 13
9 43 16 68 7 25 14 54 16 65 2 11 22 97 44 190 22 94 52 217 65 275 13 58 40
172 59 253 20 81 36 150 36 153 0 3 -15 -3 -32 -14 -18 -11 -58 -33 -88 -49
-57 -31 -435 -242 -943 -526 -163 -92 -301 -167 -305 -167 -4 0 -30 53 -59
118 -123 278 -478 1074 -514 1150 -21 46 -39 88 -39 93 0 32 -24 -10 -85 -143z
m290 -1331 c11 -2 43 -8 70 -11 182 -26 496 -142 617 -227 14 -11 29 -19 33
-19 3 0 48 -31 98 -68 464 -345 720 -861 712 -1432 -3 -171 -14 -267 -51 -411
-40 -162 -135 -385 -208 -492 -14 -21 -26 -40 -26 -42 0 -2 -28 -42 -62 -87
-70 -94 -234 -261 -323 -329 -188 -144 -423 -259 -645 -315 -73 -18 -75 -18
-145 -29 -27 -4 -61 -10 -75 -12 -48 -8 -350 -11 -392 -3 -24 4 -67 11 -97 14
-207 24 -490 136 -695 274 -150 101 -334 272 -405 376 -8 12 -18 23 -22 26
-15 11 -120 183 -159 261 -80 158 -150 373 -166 510 -3 30 -10 73 -14 97 -8
45 -5 343 4 402 3 19 8 53 12 75 20 131 89 344 152 472 89 180 194 326 336
468 276 275 592 434 981 494 104 16 414 21 470 8z"/>
<path d="M3315 4969 c-27 -5 -70 -11 -95 -15 -25 -3 -48 -8 -53 -11 -4 -2 -20
-7 -35 -9 -60 -11 -212 -69 -305 -117 -314 -160 -577 -446 -696 -757 -18 -47
-37 -94 -41 -105 -15 -37 -41 -157 -55 -259 -14 -93 -15 -344 -2 -401 3 -11 8
-40 13 -65 10 -56 8 -45 24 -110 57 -233 197 -476 375 -655 55 -56 115 -112
133 -126 19 -13 46 -33 60 -45 36 -28 133 -85 210 -123 61 -31 252 -104 252
-97 0 2 21 -2 48 -10 26 -8 63 -17 82 -19 19 -3 46 -7 60 -11 56 -12 328 -12
422 2 254 36 508 145 708 302 59 47 197 185 240 242 19 25 37 47 40 50 14 12
97 151 128 215 59 120 114 289 127 390 4 28 10 54 13 59 12 21 10 335 -4 421
-49 318 -189 598 -409 820 -87 88 -241 215 -260 215 -4 0 -19 9 -34 19 -94 67
-360 168 -491 187 -14 2 -41 6 -60 9 -56 10 -340 13 -395 4z"/>
</g>
</svg>
